<svg width="244" height="264" viewBox="0 0 244 264" fill="none" xmlns="http://www.w3.org/2000/svg">
<path fill-rule="evenodd" clip-rule="evenodd" d="M226 94.3443V184.353C226 185.424 225.428 186.415 224.5 186.951L123.5 245.263C122.572 245.799 121.428 245.799 120.5 245.263L19.5 186.951C18.5718 186.415 18 185.424 18 184.353V67.7278C18 66.656 18.5718 65.6656 19.5 65.1297L99.5 18.9417C101.5 17.787 104 19.2303 104 21.5398V43.5596L51.4086 73.9232C44.9112 77.6745 40.9086 84.6071 40.9086 92.1097V163.583C40.9086 171.085 44.9112 178.018 51.4086 181.769L113.306 217.506C119.803 221.257 127.809 221.257 134.306 217.506L196.203 181.769C202.701 178.018 206.703 171.085 206.703 163.583V101.379L221.363 91.8305C223.358 90.5306 226 91.9627 226 94.3443ZM188.703 113.104V163.583C188.703 164.655 188.132 165.645 187.203 166.181L125.306 201.917C124.378 202.453 123.234 202.453 122.306 201.917L60.4086 166.181C59.4804 165.645 58.9086 164.655 58.9086 163.583V92.1097C58.9086 91.0379 59.4804 90.0475 60.4086 89.5116L104 64.3442V96.3297C104 127.291 138.343 145.907 164.286 129.008L188.703 113.104ZM203.94 81.6971L211.538 76.748C225.508 67.6489 244 77.673 244 94.3443V184.353C244 191.855 239.997 198.788 233.5 202.539L132.5 260.851C126.003 264.603 117.997 264.603 111.5 260.851L10.5 202.539C4.00257 198.788 0 191.855 0 184.353V67.7278C0 60.2252 4.00258 53.2925 10.5 49.5412L90.5 3.35322C104.5 -4.72968 122 5.37396 122 21.5398V35.4509C126.216 35.0874 130.517 35.9993 134.306 38.1867L196.203 73.9232C199.482 75.8162 202.126 78.5194 203.94 81.6971ZM122 53.9519L122.306 53.7752C123.234 53.2393 124.378 53.2393 125.306 53.7751L187.203 89.5116C187.996 89.9691 188.528 90.7577 188.667 91.6454L154.462 113.926C140.492 123.025 122 113.001 122 96.3297V53.9519Z" fill="#FE5351"/>
</svg>
