<svg width="416" height="146" viewBox="0 0 416 146" fill="none" xmlns="http://www.w3.org/2000/svg">
<path d="M306 91C305.448 91 305 91.4477 305 92C305 92.5523 305.448 93 306 93L306 91ZM306 93L369 93L369 91L306 91L306 93Z" fill="#FE5351"/>
<path d="M85 91C84.4477 91 84 91.4477 84 92C84 92.5523 84.4477 93 85 93V91ZM85 93H148V91H85V93Z" fill="#FE5351"/>
<path fill-rule="evenodd" clip-rule="evenodd" d="M63.55 49.5688V74.0359C63.55 74.7504 63.1688 75.4107 62.55 75.768L34.775 91.8038C34.1562 92.1611 33.3938 92.1611 32.775 91.8038L5 75.768C4.3812 75.4107 4 74.7504 4 74.0359V41.9641C4 41.2496 4.3812 40.5893 5 40.2321L26.775 27.6603C28.1083 26.8905 29.775 27.8527 29.775 29.3923V34.5981L14.3253 43.518C12.4689 44.5897 11.3253 46.5705 11.3253 48.7141V68.2859C11.3253 70.4295 12.4689 72.4103 14.3253 73.4821L31.275 83.268C33.1314 84.3397 35.4186 84.3397 37.275 83.268L54.2247 73.4821C56.0811 72.4103 57.2247 70.4295 57.2247 68.2859V49.9993L60.4584 47.893C61.7888 47.0264 63.55 47.9811 63.55 49.5688ZM53.2247 52.6048V68.2859C53.2247 69.0004 52.8435 69.6607 52.2247 70.018L35.275 79.8039C34.6562 80.1611 33.8938 80.1611 33.275 79.8039L16.3253 70.018C15.7065 69.6607 15.3253 69.0004 15.3253 68.2859V48.7141C15.3253 47.9996 15.7065 47.3393 16.3253 46.9821L29.775 39.2169V49.4312C29.775 57.3699 38.5809 62.1433 45.2329 57.8104L53.2247 52.6048ZM56.4355 45.7396L58.2752 44.5413C62.2664 41.9416 67.55 44.8056 67.55 49.5688V74.0359C67.55 76.1795 66.4064 78.1603 64.55 79.2321L36.775 95.268C34.9186 96.3397 32.6314 96.3397 30.775 95.268L3 79.2321C1.14359 78.1603 0 76.1795 0 74.0359V41.9641C0 39.8205 1.14359 37.8397 3 36.768L24.775 24.1962C28.775 21.8868 33.775 24.7735 33.775 29.3923V32.9491C34.9745 32.8489 36.1973 33.1099 37.275 33.7321L54.2247 43.518C55.1617 44.0589 55.9171 44.8315 56.4355 45.7396ZM33.775 36.9917C34.2757 36.8624 34.815 36.9306 35.275 37.1962L52.2247 46.9821C52.6075 47.2031 52.8994 47.5401 53.0664 47.9342L43.0498 54.4587C39.0586 57.0585 33.775 54.1944 33.775 49.4312V36.9917Z" fill="#FE5351"/>
<path d="M170.035 82.84V84.4H165.355V97H163.675V84.4H158.995V82.84H170.035ZM171.74 97V81.88H173.3V88.94H173.34C173.76 88.2 174.88 87.4 176.34 87.4C178.8 87.4 179.9 88.96 179.9 91.22V97H178.34V91.38C178.34 89.82 177.66 88.84 176.2 88.84C174.18 88.84 173.3 90.3 173.3 92.44V97H171.74ZM190.033 94.38L191.213 95.3C190.113 96.72 188.793 97.24 187.053 97.24C184.113 97.24 182.313 95.04 182.313 92.32C182.313 89.42 184.353 87.4 187.113 87.4C189.753 87.4 191.553 89.2 191.553 92.3V92.8H183.993C184.113 94.42 185.353 95.8 187.053 95.8C188.393 95.8 189.293 95.32 190.033 94.38ZM183.993 91.48H189.873C189.813 89.9 188.773 88.84 187.053 88.84C185.333 88.84 184.193 89.9 183.993 91.48ZM211.193 84.7L209.733 85.76C208.893 84.62 207.553 84.04 206.193 84.04C203.033 84.04 200.793 86.82 200.793 89.92C200.793 93.2 203.013 95.8 206.193 95.8C207.913 95.8 209.293 95.1 210.293 93.82L211.553 94.88C210.293 96.58 208.453 97.36 206.193 97.36C202.133 97.36 198.993 94.22 198.993 89.92C198.993 85.76 201.993 82.48 206.193 82.48C208.113 82.48 209.993 83.14 211.193 84.7ZM213.895 97V82.84H217.515C220.255 82.84 223.155 83.24 223.155 86.74C223.155 88.8 221.815 90.14 219.615 90.48L223.635 97H221.575L217.735 90.64H215.575V97H213.895ZM215.575 84.4V89.08H217.075C218.935 89.08 221.355 89.08 221.355 86.74C221.355 84.7 219.575 84.4 217.935 84.4H215.575ZM226.121 97V82.84H235.021V84.4H227.801V88.84H234.541V90.4H227.801V95.44H235.381V97H226.121ZM236.337 97L242.577 82.84H244.157L250.177 97H248.217L246.777 93.52H239.697L238.237 97H236.337ZM246.137 91.96L243.337 85H243.297L240.357 91.96H246.137ZM259.723 82.84V84.4H255.043V97H253.363V84.4H248.683V82.84H259.723ZM261.707 97V82.84H263.387V97H261.707ZM270.383 97L264.963 82.84H266.863L271.223 94.48H271.263L275.763 82.84H277.543L272.003 97H270.383ZM279.129 97V82.84H288.029V84.4H280.809V88.84H287.549V90.4H280.809V95.44H288.389V97H279.129Z" fill="#FE5351"/>
<path d="M85.8315 67H93.3195V50.872L107.143 67H117.607L101.191 48.808L116.311 33.016H106.519L93.3195 47.128V33.016H85.8315V67ZM133.912 67H140.536V55.144C140.536 47.368 138.28 43.096 129.88 43.096C126.088 43.096 122.248 44.344 119.608 46.84L123.448 50.776C124.984 49.048 126.952 47.992 129.304 47.992C131.8 47.992 133.912 49.624 133.912 52.168C127.912 52.168 118.12 52.312 118.12 60.376C118.12 65.08 122.056 67.576 126.424 67.576C129.352 67.576 132.232 66.568 133.816 64.072H133.912V67ZM133.912 56.776V58.312C133.912 61.192 131.272 62.68 128.44 62.68C126.856 62.68 125.032 61.864 125.032 60.136C125.032 56.968 129.928 56.776 132.136 56.776H133.912ZM145.053 67H152.253V55.192H152.349L160.221 67H169.293L159.789 54.184L169.053 43.672H160.221L152.253 52.888V30.712H145.053V67ZM188.765 59.272C187.565 60.904 185.981 62.104 183.629 62.104C180.845 62.104 178.781 60.328 178.205 57.592H194.909V55.336C194.909 47.896 190.685 43.096 183.965 43.096C176.765 43.096 171.005 47.896 171.005 55.336C171.005 62.776 176.765 67.576 183.965 67.576C187.709 67.576 191.501 65.896 193.805 62.968L188.765 59.272ZM178.205 52.696C178.397 50.44 180.125 48.28 183.293 48.28C185.885 48.28 187.757 50.296 187.709 52.696H178.205ZM199.288 30.712V67H206.488V55.384C206.488 52.36 207.064 49.432 210.808 49.432C214.504 49.432 214.552 52.888 214.552 55.576V67H221.752V54.136C221.752 47.896 220.408 43.096 213.112 43.096C209.608 43.096 207.256 45.016 206.584 46.84H206.488V30.712H199.288ZM226.946 67H234.146V43.672H226.946V67ZM226.37 36.328C226.37 38.632 228.242 40.504 230.546 40.504C232.85 40.504 234.722 38.632 234.722 36.328C234.722 34.024 232.85 32.152 230.546 32.152C228.242 32.152 226.37 34.024 226.37 36.328ZM254.434 67H268.354C274.402 67 281.122 64.648 281.122 57.544C281.122 53.128 278.146 49.816 273.682 49.24V49.144C277.186 48.04 279.538 45.448 279.538 41.656C279.538 34.264 273.058 33.016 267.106 33.016H254.434V67ZM261.922 39.352H267.01C269.362 39.352 272.05 40.072 272.05 42.904C272.05 45.64 269.65 46.6 267.346 46.6H261.922V39.352ZM261.922 52.936H267.586C270.034 52.936 273.634 53.464 273.634 56.68C273.634 59.656 270.994 60.664 268.642 60.664H261.922V52.936ZM299.287 67H305.911V55.144C305.911 47.368 303.655 43.096 295.255 43.096C291.463 43.096 287.623 44.344 284.983 46.84L288.823 50.776C290.359 49.048 292.327 47.992 294.679 47.992C297.175 47.992 299.287 49.624 299.287 52.168C293.287 52.168 283.495 52.312 283.495 60.376C283.495 65.08 287.431 67.576 291.799 67.576C294.727 67.576 297.607 66.568 299.191 64.072H299.287V67ZM299.287 56.776V58.312C299.287 61.192 296.647 62.68 293.815 62.68C292.231 62.68 290.407 61.864 290.407 60.136C290.407 56.968 295.303 56.776 297.511 56.776H299.287ZM310.428 67H317.628V55.384C317.628 52.36 318.204 49.432 321.948 49.432C325.644 49.432 325.692 52.888 325.692 55.576V67H332.892V54.136C332.892 47.896 331.548 43.096 324.252 43.096C320.748 43.096 318.396 45.016 317.436 46.84H317.34V43.672H310.428V67ZM337.991 67H345.191V57.256C345.191 52.6 345.863 49.432 351.335 49.432C352.391 49.432 353.399 49.624 354.407 49.912V43.336C353.735 43.144 352.823 43.096 352.007 43.096C348.839 43.096 346.823 44.584 345.287 47.416H345.191V43.672H337.991V67ZM357.634 67H364.834V43.672H357.634V67ZM357.058 36.328C357.058 38.632 358.93 40.504 361.234 40.504C363.538 40.504 365.41 38.632 365.41 36.328C365.41 34.024 363.538 32.152 361.234 32.152C358.93 32.152 357.058 34.024 357.058 36.328Z" fill="#FE5351"/>
</svg>
